<svg xmlns="http://www.w3.org/2000/svg" viewBox="0 0 380 380" xml:space="preserve"><path d="M1 140C1 94.5 1.037 49.5.917 4.5.909 1.517 1.518.916 4.5.92c124.333.095 248.667.095 373 0 2.982-.003 3.584.599 3.581 3.581-.095 124.333-.095 248.667 0 373 .003 2.981-.599 3.584-3.58 3.581-124.334-.095-248.667-.103-373 .027C.825 381.112.948 379.693.95 377 1.011 298.167 1 219.333 1 140z"/><path fill="#213688" d="M161.745 322.291c-3.401-12.5-6.497-24.668-9.983-36.723-.96-3.323.148-4.351 2.928-5.474 10.66-4.307 21.779-7.454 32.047-13.377-9.14.598-18.28 1.221-27.422 1.787-7.771.481-15.548.866-23.319 1.357-2.66.169-3.957-.655-3.904-3.607.114-6.325 2.342-12.37 2.218-18.733-.042-2.142 1.914-2.361 3.715-2.29 34.752 1.387 69.522.827 104.287.892 3.08.006 4.623 1.095 4.574 4.372-.1 6.66-.081 13.323.018 19.983.042 2.828-.992 4.264-3.935 4.59-5.244.582-10.458 1.432-15.747 2.179-.23 1.368.961 1.596 1.755 1.717 4.982.762 5.427 3.395 3.967 7.739-7.64 22.73-15.072 45.53-22.566 68.31-.828 2.515-1.687 5.025-2.352 7.584-.345 1.325-.433 2.758-2.08 2.996-2.289.33-2.286-1.943-2.523-3.031-1.618-7.418-2.948-14.9-4.37-22.36-2.372-12.44-4.743-24.882-7.996-37.354-2.374 9.405-4.809 18.796-7.106 28.22-2.35 9.637-4.568 19.308-6.833 28.966-.326 1.392-.032 3.428-2.03 3.46-2.059.034-2.44-2.106-2.855-3.6-2.436-8.758-4.698-17.565-7.087-26.338-.994-3.653-2.157-7.26-3.4-11.265z"/><path fill="#E28C2E" d="M166.794 78.092c2.036-.338 3.885.511 5.798-.863 2.834.838 5.274-.142 8.134-.12 3.989 1.524 7.797 1.522 11.55 1.557 7.437.069 14.875.097 22.31.243 3.138.062 6.37.022 8.795 3.292-.301 5.46-2.49 9.522-7.702 11.896-2.744-.525-5.036-.115-7.343-.073-20.172.368-40.35.837-60.954-.41-4.155.05-6.575-2.187-8.511-4.917a25.111 25.111 0 0 0-2.78-3.316c-.694-1.484-.536-2.62-.19-4.15 2.363-3.058 5.464-3.316 8.58-3.415 3.252-.104 6.533.118 9.998-1.253 4.411-.697 7.86 2.802 12.315 1.529z"/><path fill="#C56026" d="M92.7 122.587c9.075 12.4 20.624 14.042 30.959 4.5 1.172-.72 2.318-1.29 3.089-.691 4.227 3.278 9.138 2.242 13.832 2.302 3.094.04 5.866.627 8.64 2.755 1.413.594 1.995 1.493 2.737 2.784.445 1.161.494 1.983.482 3.226-.044.692-.076.97-.235 1.646-1.172 1.718-1.646 3.39-3.118 4.898-2.055.842-3.612 1.58-5.586 1.527-16.126-.44-32.26-.34-48.386-.093-5.856.09-11.942-.234-17.791 2.847-1.016.779-1.662 1.354-2.91 1.69-1.509-1.54-2.17-3.283-2.408-5.566-.731-1.175-.431-2.154-.52-3.424-.063-.831-.094-1.308-.162-2.146-.505-2.356.076-4.228.856-6.395 3.61-2.904 7.616-2.64 11.55-2.693 5.922-.08 5.916-.07 5.915-5.743 0-.49.224-.955.665-1.69.951-.803 1.593-.626 2.391.266z"/><path fill="#BD5423" d="M226.464 156.172c-.212-.297-.375-.697-.4-.912-.85-2.72-1.948-5.167-1.502-8.283 5.718-1.709 11.4-1.794 16.91-1.92 5.897-.134 11.915.276 17.832.256 15.413-.05 30.85 1.383 46.243-.423 1.33-.156 2.634-.437 4.224.575 1.018 1.745.654 3.267.457 5.164-.211.402-.236.368-.215.368-1.355 2.659-1.072 6.408-5.317 7.56-3.953 1.172-7.533 1.771-11.24 1.77-15.317-.006-30.634-.034-45.95.01-5.124.016-10.23-1.909-15.776-.022-.943.314-1.487.372-2.403.123-1.414-1.255-1.586-2.88-2.863-4.266z"/><path fill="#C76227" d="M237.357 118.72c2.59 2.454 4.577 5.146 7.154 7.034 9.317 6.826 17.997 5.917 27.146-2.595.438-.037.671.054.683.168.699 6.776 5.397 6.656 10.527 6.431 5.92-.258 11.862-.152 17.792.014 3.151.089 6.232.564 9.229 2.626.668 1.085.603 1.921.611 3.169-.006 2.108.018 3.794-.087 5.889-.829 1.514-2.027 1.945-3.136 1.509-8.45-3.326-17.121-.38-25.674-.78-10.75-.503-21.585-.342-32.382-.34-5.633.002-11.242.38-16.883-.323-2.675-.334-5.203.907-7.681 2.902-.942.299-1.493.26-2.393-.161-.36-.224-.29-.238-.283-.202-.172-.226-.369-.473-.692-.916-.15-.597-.19-.984-.223-1.664-.06-1.142.298-1.952.14-3.112-.303-.712-.47-1.128-.657-1.904-.52-2.246-1.35-4.165.58-6.18 3.298-2.159 6.638-1.496 9.865-1.188 2.686.257 5.156-.069 7.87-1.21-2.439-2.689-5.3-5.068-2.854-9.2.546-.149.781-.123 1.348.033z"/><path fill="#AE4620" d="M228.708 158.757c.46.475.663.722 1.097 1.082.849.25 1.623.125 2.15.46 8.304 5.267 17.482 3.594 26.528 3.682 7.295.07 14.576-.27 21.856-.2 8.153.08 16.194-.356 24.464-2.218 1.57 2.549-.801 4.487-.58 7.1-.222.364-.231.329-.214.333-1.755 1.323-2.219 3.642-4.225 5.254-3.872 2.336-7.674 2.973-11.763 2.985-16.287.052-32.573.26-49.282-.085-1.26.208-2.099.27-3.356.037-2.925-5.86-5.437-11.646-8.075-17.756.205-.685.611-.876 1.4-.674z"/><path fill="#B74E21" d="M74.033 150.382c.201-.863.447-1.366.814-2.122 1.342-.837 2.45-.462 3.33.364 3.835 3.6 8.625 4.092 13.486 4.023 15.605-.223 31.217.809 46.815-.3 1.57-.111 2.955.28 4.463 1.612.941 4.646-1.056 8.176-3.493 11.938-3.533 1.998-6.782 2.208-10.413 1.806-7.401-.82-14.926-.896-22.302-.043-5.735.663-11.197.2-17.142-1.036-2.842.121-4.512-1.15-6.195-3.19a71.663 71.663 0 0 0-2.154-2.158c-4.018-2.712-5.178-6.9-7.209-10.894z"/><path fill="#7F231F" d="M147.544 228.616c-8.072 9.566-9.73 9.523-15.1-1.997-3.471-7.444-6.063-15.297-9.124-23.314 4.641-1.702 5.149 1.983 6.361 5.309.89 6.668 5.897 10.972 7.88 16.752.74 2.158 2.532.752 3.6-.195 3.898-3.457 5.541-7.988 5.852-13.41-.245-1.82-.16-3.264.671-4.922.982-1.204 2.115-1.317 3.507-1.66 3.82.032 4.624 2.422 4.992 5.288.157 1.229-.207 3.083 1.575 3.225 1.626.13 1.79-1.668 2.334-2.834 1.054-2.265 2.25-4.44 4.352-6.409.777-.322 1.252-.373 2.085-.25 4.248 4.525.114 7.557-1.381 10.582.071-.183.452-.701 1.31-1.202 3.014 1.56 5.968 1.046 9.112 1.186-.899 6.86-4.555 12.045-9.415 16.426-3.546 3.198-6.65 2.35-8.774-2.381-.883 1.133-1.714 2.128-2.467 3.18-1.352 1.885-2.665 4.424-5.325 3.612-2.78-.85-1.135-3.68-1.441-6.054.275-.683.29-.894.064-1.047-.223-.15-.387-.037-.668.115z"/><path fill="#CB702F" d="M97.958 109.189c4.847-5.81 10.29-7.666 15.824-5.74 5.737 1.996 8.95 6.419 9.18 12.64.18 4.892-2.788 9.942-6.956 11.833-5.064 2.298-12.209 1.236-16.08-2.631-3.8-3.797-4.987-8.352-3.147-13.522.273-.766.72-1.47 1.179-2.58z"/><path fill="#9A311B" d="M235.014 177.486c.438-.696.92-1.017 1.689-1.405 3.37.87 4.112 3.49 4.8 6.533 1.664 5.109 4.263 7.676 8 7.063 8.977-1.47 17.879.394 26.81.418 6.116.016 10.66-1.111 14.41-6.284.695-.91 1.31-1.34 2.425-1.658 1.21.014 1.87.376 2.472 1.423-1.8 3.374-3.309 6.666-6.287 9.302-.62.463-.817.832-1.061 1.54-.176.272-.322.52-.447.592-1.49 1.01-3.048 1.732-3.832 3.667a16.318 16.318 0 0 1-1.795 3.184c-.408.327-.55.48-.919.85-.227.216-.252.31-.3.31-.684.472-1.4.763-2.553 1.031-10.237 3.58-20.38 2.169-30.444 1.807-2.19-.078-3.96-1.599-6.095-2.99-1.188-1.702-.774-3.304-.888-5.211.135-2.105-.23-3.695-1.549-5.36-1.601-5.004-2.997-9.72-4.436-14.812z"/><path fill="#E49532" d="M223.375 83.13c-6.073-2.753-12.26-1.693-18.255-2.062-7.058-.434-14.147-.416-21.223-.455-1.55-.008-2.591-.208-2.847-2.256.47-1.477 1.649-1.898 2.721-2.932 5.052-3.164 10.62-4.858 14.845-9.315.52-.27.724-.413 1.298-.625 6.922 3.835 14.07 3.662 21.252 2.79 1.875-.229 3.59.108 5.743.42.6.2.829.317 1.333.704.7.953.718 1.713.657 2.85-.703 2.058-3.096 3.03-2.134 5.753-.222 1.046-.26 1.762-.522 2.78-.177.309-.211.24-.176.255-.935.563-1.105 1.992-2.692 2.093z"/><path fill="#821F19" d="M241.788 195.739c.194 1.987.2 3.704.213 5.85 2.569 2.29 2.09 5.09 2.278 7.7.337 4.683 1.513 5.239 6.21 5.762 8.423.938 15.256-1.593 20.841-7.849 1.615-1.808 3.747-2.66 6.46-2.933.566.24.772.387.908.907-9.692 11.862-20.706 21.728-33.779 29.17-1.283.73-2.784 1.066-4.145 1.671-1.63.725-3.227 1.006-4.65-.317-1.582-1.473-1.47-3.574-.701-5.104 5.56-11.052 4.74-22.882 4.522-35.12.686-.855 1.207-.561 1.843.263z"/><path fill="#96321E" d="M219.25 208.304c-3.614-8.124-8.61-14.765-14.854-20.567-1.92-1.784-3.408-4.031-5.244-6.363-.437-.817-.377-1.293.369-1.933 1.4-.56 2.397-.32 3.71.277 3.075 3.142 6.7 4.815 10.052 6.944 4.473 2.842 9.05 1.184 13.597 1.115 1.574-.024 1.852-1.135 1.229-2.497-.557-1.217-.961-2.483-1.063-4.18.35-1.666.546-3.023 1.513-4.744 4.325 3.537 5.746 8.5 6.482 14.168.908 4.782.284 9.206.289 14.008-2.056 3.214-5.184 2.11-7.778 2.75-1.91.471-3.789 1.063-6.074 1.67-.94.036-1.443-.123-2.228-.648z"/><path fill="#CE6C2A" d="M149.25 132.818c-4.634-2.315-9.498-1.75-14.295-1.848-3.884-.079-8.475 1.43-10.68-3.988.17-.929.639-1.822 1.387-2.85.54-.364.787-.606 1.18-1.07.156-.209.2-.602.277-.785 2.242-2.971 1.971-6.83 4.496-9.834 1.919-1.164 3.467-.382 5.086-.12 3.61.581 7.251.926 10.947-1.383.955-.178 1.512-.155 2.474.094 5.406 4.924 4.22 11.017 3.772 17.249-.481.705-.803 1.045-1.412 1.515-.4.27-.558.363-.955.556-.238.1-.657.361-.8.56-.142.198-.293.668-.413.886-.317.496-.57.708-1.064 1.018z"/><path fill="#EBB83B" d="M221.636 24.779c.876 1.348 1.593 2.388 2.344 3.748.768 1.459.549 3.004 1.87 4.219.261.215.194.228.2.195.673 1.104.504 2.592 1.764 3.807.247.222.189.25.21.226.585 3.21 1.719 6.333 1.834 10.031-.58 1.439-1.622 1.98-2.503 1.55-4.764-2.33-9.626-.939-14.84-.758-2.808-1.95-1.795-4.593-1.997-6.923-.167-1.934.19-3.905-.551-6.183-.401-5.946-1.181-11.374-4.782-16.377-.288-.27-.223-.294-.23-.26-1.687-4.363.76-4.905 4.66-4.304.437.193.396.242.394.21.393.463.986.527 1.784.832.243.161.219.201.238.187 1.751 3.912 5.525 5.843 8.727 8.8.281.19.237.217.248.193.164.15.317.325.63.807z"/><path fill="#AC4420" d="M203.394 181.02c-1.194-.255-1.992-.514-3.073-.914-3.638-4.7-7.754-8.877-7.585-15.424 4.947-1.883 9.8-1.665 14.617-1.25 4.131.356 8.151.502 12.259-1.56 3.011 3.896 5.646 7.66 8.36 11.767.352 1.162.035 1.9-.429 2.994-3.94 3.985-8.806 4.444-13.485 4.118-3.487-.243-6.852-.12-10.664.27z"/><path fill="#922918" d="M149.2 205.322c-.186 2.376-.2 4.096-.215 6.246-1.502 3.028-3.865 3.776-6.695 3.625-4.969-.267-9.819-.851-13.958-4.868-1.708-2.582-1.493-5.825-4.782-7.238-6.002-8.121-12.107-15.737-20.329-21.852-.83-.925-.735-1.615.025-2.548 1.056-.505 1.8-.47 2.874-.033 3.503 2.66 7.09 4.668 9.79 8.26 1.382 2.121 3.556 2.857 4.768 4.776 3.851 6.1 9.722 6.09 15.895 4.805 1.384-.289 2.402-1.117 3.12-2.313.898-1.497 2.032-2.64 4.258-2.637 3.019 3.023 3.692 6.904 5.322 10.714.184 1.027.187 1.717-.073 3.063z"/><path fill="#E8AE3C" d="M174.745 40.31c3.031.413 5.76.958 8.836 1.694.651.29.912.458 1.316.84.187.142.109.149.106.11.206.232.433.488.883.885.201.16.13.15.136.115 3.087 2.447 4.385 5.96 5.813 9.785.264.233.197.24.203.207.815 2.804.998 5.49-2.176 7.598-2.284.331-3.704-.673-4.372-2.207-1.62-3.719-4.89-4.424-8.182-4.273-4.913.225-10.368-1.136-14.123 3.839-.801 1.062-2.328 1.156-3.778-.182-.642-2.64-.323-4.887.372-7.501 1.002-5.888 4.833-8.73 9.772-10.969 1.824.517 3.369.182 5.194.06z"/><path fill="#CA6829" d="M310.161 132.67c-11.655-1.121-23.11-.59-34.548-.671-6.934-.05-7.254-.611-3.981-6.798.222-.42.212-.965.322-1.816 1.654-2.826 3.297-5.288 5.105-8.06.36-.468.555-.625 1.48-.72.921.217 1.111.373 1.501.836 1.056 6.764 1.102 6.457 8.489 7.562 4.384.656 8.55-.429 12.815-.305 2.49.072 3.622-2.138 5.934-2.951 1.807 4.105 3.058 8.221 2.883 12.923z"/><path fill="#CF7532" d="M92.877 122.495c-.443.168-.914-.07-1.623-.427-.238-.119-.728-.19-.97-.242a18.518 18.518 0 0 0-1.565-.307c-4.929-1.687-8.796.759-12.744 2.441-1.31.558-2.366 1.714-4.296 1.527-.986-.594-1.197-1.247-.875-2.326.213-.3.248-.724.308-.927.373-.711.375-1.31.71-2.1 1.551-7.678 6.282-12.97 11.83-18.078 2.317.017 2.566-2.302 4.432-2.949 3.944-.619 5.976 1.571 7.88 4.558-3.577 5.914-5.496 11.784-3.087 18.83z"/><path fill="#DC8B35" d="M286.872 77.794c3.038 1.918 4.189 5.003 6.132 7.844.545 1.176 1.085 1.976 1.53 3.223.837 2.786-.606 4.043-2.46 5.099-1.643.936-3.44 1.249-5.281 1.196-3.923-.111-6.213 1.073-4.76 5.551.207.638.023 1.318-.3 2.31-.854 1.234-1.738 1.669-3.218 1.258-.663-7.783-3.657-14.587-6.484-21.822-1.038-5.16-.097-6.733 4.412-6.328 3.098.278 6.121-1.473 9.605.044.444.092.544.401.392.457-.218.444-.096.758.432 1.168z"/><path fill="#D4772E" d="M278.116 104.491c.82-.706 1.576-.981 2.605-1.387 4.033-2.22 8.075-1.04 11.971-.966 2.997.057 4.063-.678 3.079-3.685-.575-1.757-.79-3.584.944-5.312 4.027 3.088 5.577 7.576 7.275 12.37.228.617.415.868.713 1.325.168.618.223 1.03.32 1.75-.14 1.809.502 3.381-.662 5.178-8.304 2.751-16.31 5.1-25.008 1.602-.337-.322-.372-.352-.388-.367-.15-.138-.282-.26-.642-.237-.229.145-.665.192-.882.222-.083-3.346 1.087-6.636.675-10.493z"/><path fill="#B74E21" d="M219.935 161.755c-1.28 3.374-3.597 4.708-6.997 4.254-6.345-.845-12.804.556-19.53-.963-3.958-1.492-4.643-4.746-5.262-8.382 2.452-3.816 6.356-3.732 9.499-3.392 5.064.549 9.776.337 14.83-1.72 1.31.082 2.12.348 3.182 1.134.34.27.401.28.395.31.788 1.213.279 2.697.953 4.244.173.742.342 1.136.818 1.707.397.346.556.482.93.85.216.23.248.202.238.221.15.157.308.294.586.724.18.45.243.607.358 1.013z"/><path fill="#D37229" d="M249.264 121.23c-.727-.26-.985-.428-1.216-.958-1.439-3.068-4.63-5.056-3.904-9.173 5.065-4.369 11.184-4.996 17.02-6.151 3.598-.713 5.682 2.817 8.73 4.706 2.02 10.602-7.405 13.92-14.492 13.061-1.903-.23-3.828-.863-6.138-1.486z"/><path fill="#91432E" d="M188.707 156.718c1.466 2.836 2.718 5.265 4.13 7.998 2.405 5.073 4.647 9.842 7.045 14.93-.092.552-.34.783-.733 1.223-1.097-1.24-2.048-2.69-3.259-4.342-.452.429-1.111-.602-1.129.312.496 1.316.833 2.405 1.228 3.834-.166 1.114-.7 1.573-1.816 1.82-3.761-.69-2.44-4.743-5.023-6.432-2.279-1.452-2.21-6.235-6.622-3.65-2.451 5.456-4.899 10.622-5.89 16.638.499 3.621-.337 6.661-1.758 9.969-.24.582-.328.819-.551 1.416-.53 1.053-1.092 1.567-2.173 2.016-.617.062-.865.03-1.43-.191-2.647-3.754-.36-7.317-.102-10.81.588-7.941 2.516-15.564 6.982-22.432 1.749-2.688 3.56-4.693 6.841-5.09.881-.106 2.311-.158 1.458-1.672-.583-1.034-1.802-.956-2.634-.312-2.255 1.747-3.687 4.189-5.32 6.485-1.324 1.863-1.691 4.95-5.365 4.485-1.583-1.492-1.697-3.076-1.385-5.13 1.348-4.378 3.851-7.599 6.652-11.14 4.647-3.59 6.885-3.588 10.854.075z"/><path fill="#D9782A" d="M269.382 109.902c-1.041.103-2.076.355-2.315.027-3.656-5.02-8.346-.85-12.484-1.382-3.042-.391-5.22 3.55-9.105 2.468-4.555-5.814 2.334-14.567 9.808-14.98 1.973-.109 3.954-.02 6.364-.055.432-.008.821.065 1.007.133 3.232 2.296 6.667 4.118 7.767 8.212.529 1.968 1.189 3.831-1.042 5.577z"/><path fill="#8B2A1D" d="M170.68 201.851c.488.109.658.12 1.082.137.675-.423.726-1 1.053-1.759.175-.221.185-.229.186-.235 1.7-1.094 2.825-3.209 5.637-2.854 3.916 3.609 8.288 2.715 12.54 2.293 2.584-.256 2.507-2.769 3.717-4.669.948-.7 1.7-.836 2.893-.67 3.545 2.944 5.803 6.21 5.253 11.088-.365.555-.551.746-1.1 1.098-7.986 1.669-15.754-.141-23.64 1.46-1.226 2.301-2.337 4.265-2.428 6.92-.646.597-1.375.727-1.797 1.159-4.119 4.221-4.914 4.087-6.985-1.586-.281-.446-.42-.577-.612-.99.032-.657.162-1.016.415-1.637.123-.468.166-.658.318-1.12.298-.619.477-.97.758-1.607.2-.463.287-.645.517-1.096.523-1.003.749-1.78.779-2.925-.066-.746-.084-1.178.02-1.93.327-.71.66-.99 1.393-1.077z"/><path fill="#DF822B" d="M296.98 92.722c.062 2.043-.14 3.776 1.357 5.313 1.633 1.677.821 3.768-.048 5.506-.77 1.54-2.437 1.444-3.956 1.276-4.23-.47-8.46-.937-13.014-1.624-.756-1.117-1.259-1.988-1.608-2.916-2.205-5.862-1.383-7.056 4.799-7.299 3.41-.134 7.105.418 9.426-3.569.25-.546.396-.744.815-.692.554.43.836.608 1.2 1.03.492.657.538 1.201.727 1.98.162.412.211.576.302.995z"/><path fill="#7F231F" d="M233.76 205.257c2.182-4.5.8-9.024 1.309-13.867 1.694 9.516 1.467 19.493-.356 29.415-.771 4.2-1.928 8.336-3.065 12.459-.6 2.17-1.805 4.136-4.468 3.748-2.39-.347-3.104-2.333-3.034-4.457.167-5.022-2.044-9.667-1.984-15.302 1.646-1.26 2.85-.676 3.77.316 3.217 3.465 3.896.726 4.694-1.843 1.05-3.385.238-7.297 3.134-10.469z"/><path fill="#D99A40" d="M286.296 76.014c-3.37 1.763-6.747 3.73-10.987 2.224-2.142-.76-3.258.873-3.31 3.452-1.936-2.735-3.85-5.864-5.879-9.323-.453-.701-.614-1.142-.641-2.008.806-4.07 1.36-8.072 7.213-6.534 5.705 2.95 9.16 7.884 13.604 12.189z"/><path fill="#E0A13F" d="M272.899 63.635c-3.664.392-4.408 3.922-6.638 6.215-.421.045-.57-.04-.912-.297a5.53 5.53 0 0 0-1.258-.884c-.383-.195-.536-.272-.898-.5-.209-.152-.193-.17-.198-.16-.156-.15-.307-.308-.628-.749-.17-.281-.324-.7-.348-.923-.238-.494-.463-.757-.897-1.177-.2-.165-.13-.156-.137-.122-.424-.637-.81-1.337-1.825-1.853-.256-.15-.19-.16-.197-.127-.778-1.557-1.49-3.2-3.743-3.841-.272-.188-.222-.218-.223-.189-.214-.23-.442-.476-.88-.869-.195-.159-.114-.15-.118-.11-.207-.232-.43-.485-.872-.88-.198-.16-.135-.16-.153-.134-.633-1.074-1.214-2.207-2.789-2.827-.268-.164-.204-.19-.217-.158-1.107-2.33-.62-3.675 2.682-3.292.432.201.355.227.343.188.396.465 1.003.541 1.82.864.249.167.184.181.181.148.414.48 1.036.53 1.863.852 6.146 2.593 11.249 6.214 16.042 10.825z"/><path fill="#7F231F" d="M215.654 214.012c2.98 4.978 2.442 10.73 4.042 16.001.512 1.685-.869 2.729-2.234 3.42-1.464.742-2.764.4-4.069-.656-2.622-2.12-3.234-5.22-4.234-8.502.039-.372.253-.77.163-.977-.161-.666-.234-1.126-.335-1.934.406-4.187 1.72-7.227 6.667-7.352z"/><path fill="#DFB852" d="M139.899 34.225c1.005-1.754 2.07-3.173 3.005-4.673 1.459-2.338 3.392-4.414 6.217-3.327 3.307 1.273 2.266 4.828 1.71 6.99-1.944 7.58-1.874 15.232-1.954 23.385-.278.609-.491.75-1.088.934-1.461-.141-2.23-.766-2.953-1.995-1.683-3.912.603-7.429.02-11.014-.285-1.75.09-3.586-.445-5.426-2.16-.058-4.024 2.048-6.408.332-.307-.477-.372-.702-.258-1.228.178-.302.188-.228.151-.225.528-.359.588-.974.887-1.805.148-.262.194-.182.158-.21.484-.367.832-.826.958-1.738z"/><path fill="#8B2A1D" d="M215.977 213.723c-1.84 2.747-5.015 4.039-6.702 7.166-1.27-3.331-2.198-6.797-3.189-10.244-.5-1.742-.891-3.65-3.683-3.784-.613-.183-.845-.313-.739-.653.339-.211.365-.237.377-.25 1.47-2.117 3.86-1.398 5.987-1.721-.788-4.422-7.343-6.374-4.307-12.066 6.75 4.678 10.091 11.464 12.08 19.444-.162.546-.312.719-.233 1.147.228.256.359.724.409.961z"/><path fill="#CE7B37" d="M237.546 118.49c-.144.374-.43.387-1.143.416-1.15.245-1.876.305-2.937-.066-3.689-3.372-4.066-8.104-6.264-11.929-1.248-2.173-1.926-2.338-3.325-.242-1.004 1.504-1.956 3.739-4.563 1.497.065-1.37.211-2.381.42-3.768.214-.915.275-1.467.392-2.18 1.397-1.033 1.38-2.438 1.665-4.085.307-.84.436-1.39.826-2.062 1.139-.964 1.69-2.094 3.018-2.985 2.793-.384 5.522-1.351 6.638 2.56.338 1.796.153 3.255.397 5.04-.153 6.528 1.882 12.095 4.876 17.803z"/><path fill="#DC8B35" d="M136.952 80.69c.051 1.388.055 2.459.06 3.932 1.943 3.764 3.116 7.332 2.74 11.634-1.826 2.676-4.297 2.94-7.248 3.017-.957-.147-1.457-.371-2.236-.95-.323-.259-.283-.29-.308-.286-.822-2.1-.338-4.471-1.584-6.84-1.743-2.307-2.145-4.93-.758-6.588 1.267-1.513 3.875-.546 6.07-.154.926-2.326-1.42-3.71-1.69-6.022-.33-.781-.337-1.185.337-1.71.794-.12 1.238-.014 1.936.393a8.99 8.99 0 0 1 1.023.854c.867.847 1.334 1.566 1.658 2.72z"/><path fill="#D99A40" d="M186.166 69.848c-.325.955-.854 1.125-1.786 1.146-.751.432-1.349.49-2.13.834-.463.91-1.03 1.072-2.007.993-.308-.066-.767-.232-.99-.134-7.36 2.526-15.348-1.238-19.246-9.209-.375-.776-.527-1.259-.394-2.186 2.977-2.149 4.832-.284 6.318 1.698 2.46 3.278 5.26 3.94 9.095 2.54 3.6-1.313 7.483-.88 11.634-.495 1.057.661 1.445 1.335 1.452 2.575-.087.395-.103.394-.103.4-.624.468-1.338.834-1.843 1.838z"/><path fill="#9A311B" d="M203.955 191.726c.067 2.738 1.19 4.615 2.916 6.39 1.484 1.526 2.655 3.4 3.743 5.252.816 1.39 1.999 3.124.674 4.613-1.651 1.854-2.92.009-4.159-.996-1.268-1.027-2.786-.97-4.679-1.031-.482-3.89-3.822-6.525-4.382-10.611-.832-3.224.019-5.079 3.545-5.439.563.103.733.142 1.157.245.412.159.57.255.87.59.18.404.221.57.315.987z"/><path fill="#C47F47" d="M222.99 83.362c.884-.953 1.699-1.558 2.813-2.237.139 3.913-2.306 6.98-4.425 9.906-7.833 10.819-10.504 22.992-10.49 36.474-.328.53-.607.61-1.248.449-.53-.482-.696-.72-1.026-1.361-1.388-4.096-.868-7.857-.594-12.036-.443-4.447.498-8.301 1.434-12.572.61-4.131 2.744-6.756 6.228-8.799 3.69-2.475 5.792-5.736 7.308-9.824z"/><path fill="#CE7B37" d="M96.394 103.871c-3.368-.048-5.126-2.743-8.11-3.828-.697-.481-.828-.947-.54-1.799.198-.323.243-.255.209-.276.135-.15.306-.279.739-.592 3.062-1.815 5.77-3.646 8.7-4.998 1.55-.715 3.61-1.028 5 .685 1.502 1.853-.829 2.507-1.409 3.638-1.247 2.43-2.834 4.686-4.589 7.17z"/><path fill="#923A26" d="M201.954 189.626c-1.476 1.587-2.811 2.984-3.75 5.11-.954.251-1.7.256-3.201.295-1.01-.006-1.264-.047-1.872-.24-3.931-4.198-6.302-8.845-7.273-14.537.172-.613.278-.847.641-1.366.69-.538 1.151-.706 2.003-.738 2.86.17 2.237 3.972 5.217 3.886.81-.291 1.313-.543 2.073-.908 2.207 2.642 4.159 5.399 6.162 8.498z"/><path fill="#B57345" d="M269.017 110.437c1.749-4.298.489-7.414-2.435-10.147-1.198-1.12-2.306-2.335-3.597-3.808 7.426 2.059 11.406 9.444 8.831 17.608-2.436 7.725-9.574 11.042-17.558 9.493-1.722-.333-3.327-1.264-5.182-2.246 3.56-.86 7.151.884 11.051.032 6.998-1.529 8.659-3.143 8.89-10.932z"/><path fill="#D9A959" d="M133.388 76.826c-.627.392-.881.606-1.273 1.029-2.73-6.188-2.522-12.68-1.34-19.378 1.25-7.087 3.19-13.87 6.824-20.416.349.04.373.239.435.737 1.74 1.904 1.517 3.776.817 5.735-.882 2.469-1.516 5.006-2.064 7.969-.218 5.546-2.035 10.497-1.927 16.083.231 3.038 1.61 5.847-1.472 8.241z"/><path fill="#E0A13F" d="M209.873 34.322c3.113 1.254 1.83 3.983 2.086 6.257.216 1.916-.261 3.903.802 6.108 1.885 2.067 1.494 3.94.381 5.66-1.258 1.946-1.682 4.182-2.727 6.615-1.85 2.896-3.556 5.382-7.83 4.44 1.119-4.984 4.928-8.713 4.96-14.23 2.896-4.733 1.582-9.736 2.328-14.85z"/><path fill="#A43D1D" d="M104.257 178.702c-.544.76-.838 1.237-1.188 1.993-7.552-4.815-15.519-9.343-21.011-17.334-.088-.686.096-1.001.668-1.317 1.715.91 3.156 1.885 4.916 2.934 4.795 2.405 8.995 5.193 13.308 7.793 2.196 1.323 4.275 2.563 3.307 5.931z"/><path fill="#DC8B35" d="M232.157 95.96c-1.513-2.356-3.99-.667-5.925-1.77-.897-.899-.95-1.716-.458-2.963.513-2.986 2.246-4.676 3.957-6.45 1.385-1.435 2.89-2.37 4.763-1.444 2.376 1.175 1.082 3.016.508 4.657-.262.747-.534 1.49-.984 2.554-1.25 1.423-.428 2.747-.775 4.223-.17.268-.222.23-.201.251-.244.273-.457.564-.885.943z"/><path fill="#C47F47" d="M261.85 95.618c-1.206 1.41-2.881 1.257-4.53 1.335-8.611.41-12.377 4.469-12.27 13.634-.889 3.835 2.642 5.705 2.911 9.082-5.43-3.417-6.796-7.623-4.898-14.807 1.483-5.613 6.327-9.436 12.602-9.785 1.974-.11 3.967.115 6.184.54z"/><path fill="#D9A959" d="M228.646 48.259c.011-3.641-.317-7.038-.623-10.872 6.032 12.418 5.189 25.385.317 38.612-1.035-.51-1.141-1.348-.633-2.656.256-1.127.286-1.869.322-2.981-1.06-4.629 1.49-8.864-.052-13.5-.168-3.049-1.873-5.817.669-8.603z"/><path fill="#D99A40" d="M147.532 57.342c.37-.214.825-.252 1.053-.263.143 11.05 7.747 19.966 18.332 20.595-1.137 2.892-2.882 4.251-5.325 1.635-1.492-1.598-3.344-.656-5.262-1.239-5.573-2.487-8.775-6.531-10.11-12.565-1.701-3.173-1.838-5.774 1.312-8.163z"/><path fill="#C47F47" d="M129.962 98.526c.443-.481.904-.501 1.71-.519 4.857 3.429 5.188 10.032.702 14.76-1.476 3.309-2.158 6.576-4.869 9.176 1.75-7.415 3.275-15.044 2.457-23.417z"/><path fill="#A95737" d="M209.67 128.267c.38-.272.775-.29.972-.302 2.01 7.061 1.49 14.583 4.343 21.458.373.899.631 1.845.977 3.152-.696.386-1.426.39-2.522.392-3.249-2.671-4.781-5.988-5.168-10.33-.637-5.07-1.37-9.707 1.397-14.37z"/><path fill="#B57345" d="M222.83 137.912c-.326 1.08-.807 1.972-1.522 3.07-3.484-5.834-4.359-12.373-4.214-19.554.437-.788.87-1 1.727-1.064 4.555 2.407 2.152 6.66 3.142 10.291-1.1 2.136-.195 3.897.02 6.01.285.553.506.79.847 1.247zM304.037 113.387c.21-1.572.412-2.74.82-4.2 4.142 8.006 6.222 16.72 6.043 26.38-.19.666-.327.884-.688.789-.238-1.073-.251-1.834-.286-2.976-.84-4.5-1.657-8.618-2.697-13.06-4.569-.783-2.937-4.11-3.192-6.933z"/><path fill="#7F231F" d="M201.6 205.998c.403-.001.413.404.417.607-7.597 2.22-15.365.867-23.507 1.383-.824-2.962 1.534-1.91 2.8-1.933 6.628-.116 13.258-.055 20.29-.057z"/><path fill="#DFB852" d="M210.13 33.553c-.745 5.243 1.314 10.373-1.961 15.17 1.49-10.063 2.155-20.279-3.215-30.303 5.373 3.368 4.947 9.136 5.176 15.133z"/><path fill="#B57345" d="M70.667 123.129c.565.278.78.825 1.188 1.594 2.987 2.218 2.49 4.823 1.312 7.901-.092 2.168-1.267 3.895-.311 6.003-.085.535-.293.78-.649 1.215-.183 1.251-.205 2.324-.232 3.798-3.101-6.276-1.847-13.302-1.308-20.511z"/><path fill="#A95737" d="M304.308 168.828c-.029-1.898.249-3.995.586-6.48-1.12-1.675-1.399-3.072-.158-4.975 2.671-1.51 3.336-4.049 5.055-6.152.569 6.31-3.634 11.45-5.483 17.607z"/><path fill="#C47F47" d="M219.302 120.764c-.767.239-1.158.234-1.842.225-1.082-5.755.018-11.262 2.141-16.814.33 1.186.373 2.512.414 4.335 3.48 3.268 1.848 6.431.574 9.992-.25 1.028-.514 1.557-1.287 2.262z"/><path fill="#D9A959" d="M188.35 67.869c-.564-.353-.804-.843-1.158-1.579-.55-2.045-.529-3.711 1.533-5.085 2.488-1.746 3.591-3.793 3.3-6.9 2.406 5.07.232 9.42-3.675 13.564z"/><path fill="#923A26" d="M295.931 183.656c-.628.048-1.067-.194-1.73-.548-2.895-4.562.312-6.272 3.876-8.102.997-.098 1.541.038 2.341.625-1.238 2.785-2.768 5.26-4.487 8.025z"/><path fill="#B57345" d="M221.963 144.43c.397-.387.854-.382 1.654-.375 1.496.336 1.99 1.099 1.621 2.602.113 2.73.442 5.144.786 7.973-2.07-2.698-3.64-6.016-4.061-10.2z"/><path fill="#DFB852" d="M220.933 23.643c-3.984-1.244-7.555-3.38-8.888-8.311 2.93 2.417 5.856 5.201 8.888 8.311z"/><path fill="#D9A959" d="M192.062 53.584c-3.14-1.97-3.417-6.172-5.972-9.315 4.817.88 4.76 5.303 5.972 9.315zM160.287 60.643c-.215.788-.24 1.271-.285 2.117-3.305-3.42-2.34-7.447-.355-11.715.38 2.216.413 4.634.47 7.502.303.855.408 1.304.17 2.096z"/><path fill="#D99A40" d="M183.646 75.14c.093 1.405-.611 2.38-2.317 2.8-2.766-.08-5.222-.23-8.023-.58 3.23-.178 6.592-1.201 10.34-2.22z"/><path fill="#A95737" d="M300.881 175.63c-.541.306-.911.302-1.558.304-1.203-.968-.882-1.782.35-2.744 1.202-1.712 1.714-3.541 4.031-4.12-.12 2.295-1.44 4.247-2.823 6.56z"/><path fill="#7F231F" d="M218.953 208.447c.435-.4.898-.423 1.708-.453 4.109 2.02 4.147 4.869 1.816 8.523a6.195 6.195 0 0 1-.52.519c-1.562-2.515-2.21-5.383-3.004-8.589z"/><path fill="#D9A959" d="M252.903 50.635c-1.375.443-2.659.904-2.907 3.088-1.572-.794-3.961-2.145-2.544-4.112 1.306-1.813 3.52.045 5.451 1.024z"/><path fill="#A95737" d="M309.986 136.468c0-.424.43-.44.645-.446.417 4.815.717 9.636-.295 14.727-.35-1.112-.38-2.507-.425-4.319-.837-1.411-1.068-2.496-.272-4.063.285-2.066.316-3.77.347-5.899z"/><path fill="#D99A40" d="M227.608 73.054c.337.714.35 1.525.382 2.74.019.407.006.786-.07.96-.233.526-.39.878-.76 1.423-.404.232-.593.27-.966.085-1.623-2.338-1.31-3.997 1.414-5.208z"/><path fill="#922918" d="M284.254 198.866c-1.675-1.937-1.296-2.418 3.123-3.789-.278 1.614-1.604 2.599-3.123 3.789z"/><path fill="#DFB852" d="M209.868 13.593c-2.131.516-4.827.113-4.888 4.102-2.39-4.881-2.281-4.993 4.888-4.102z"/><path fill="#C47F47" d="M87.645 98.035c.302.34.307.795.304 1.59-1.115 1.212-1.083 3.81-3.758 2.473.896-1.442 2.026-2.695 3.454-4.063z"/><path fill="#A95737" d="M216.208 159.213c-.206-1.915-.2-3.626-.178-5.762.962 1.67 1.908 3.764 2.896 6.217.043.358-.43.383-.668.386-.835-.048-1.377-.243-2.05-.841z"/><path fill="#D9A959" d="M255.079 59.323c2.196-.407 3.96.167 3.878 3.38-1.25-.77-2.499-1.928-3.878-3.38z"/><path fill="#C47F47" d="M128.09 91.272c2.78 1.12 1.647 3.728 1.872 6.355-1.25-1.536-1.661-3.73-1.872-6.355z"/><path fill="#922918" d="M241.963 195.667c-.497.086-1.007-.17-1.778-.543-1.083-.714-1.009-1.613-.996-2.793 1.85.055 2.687 1.213 2.774 3.336z"/><path fill="#B57345" d="M228.953 158.628c-.358.34-.765.357-1.472.426-1.511-.416-1.346-1.464-1.289-2.81 1.445-.106 2.566.444 2.761 2.384z"/><path fill="#C47F47" d="M225.675 91.004c.326.639.333 1.425.328 2.603-.866.955-1.718 1.518-2.847 2.211.016-1.744.886-3.32 2.519-4.814z"/><path fill="#D9A959" d="M226.067 32.613c-1.792-.064-2.023-1.474-2.05-3.39 1.239.427 1.499 1.807 2.05 3.39zM228.045 36.623c-1.751-.098-2.017-1.455-1.997-3.348 1.212.435 1.481 1.785 1.997 3.348z"/><path fill="#C47F47" d="M231.916 96.382c.215-.613.458-.853.923-1.219.182 1.588.14 3.3.03 5.435-.98-.873-.848-2.38-.953-4.216zM233.406 94.849c-.464-1.129-1.725-2.509.16-3.855.237 1.135.204 2.402-.16 3.855z"/><path fill="#D9A959" d="M250.038 54.332c1.46-.278 2.684.196 2.897 2.371-.91-.456-1.843-1.269-2.897-2.37z"/><path fill="#C47F47" d="M221.67 98.02c.269 1.227.527 2.718-1.18 3.873.089-1.124.485-2.41 1.18-3.874z"/><path fill="#821F19" d="M277.78 203.249c.96-.298 1.69-.282 2.786-.248-.252.751-.867 1.484-1.71 2.382-.228.166-.567-.1-.721-.25-.523-.556-.666-1.03-.355-1.884z"/><path fill="#D9A959" d="M174.624 40.093c-1.031 1.082-2.566 1.16-4.452.283 1.151-.256 2.59-.311 4.452-.283zM265.773 68.875c.212.207.21.657.213.881 0 .681-.004 1.139.007 1.938-.587-.466-1.188-1.275-1.694-2.6.49-.573.879-.54 1.474-.219zM139.613 34.047c.946.724.867 1.38-.453 1.837-.114-.54.027-1.128.453-1.837z"/><path fill="#D4772E" d="M295.002 88.645c.022.324-.471.374-.717.396-.55-.79-.851-1.602-1.192-2.733.977.15 1.789.788 1.91 2.337z"/><path fill="#AC4420" d="M82.786 161.788c-.015.446-.245.7-.68 1.112-.497-.323-.789-.803-1.108-1.584.506-.106 1.04.088 1.788.472z"/><path fill="#D9A959" d="M259.014 63.316c.748-.101 1.471.26 1.882 1.452-.535-.188-1.154-.68-1.882-1.452z"/><path fill="#C47F47" d="M226.007 78.42c.002-.381.43-.386.644-.389.412.16.611.324.593.805-.351.887-.486 1.456-.9 2.14-.298-.649-.318-1.412-.337-2.556z"/><path fill="#96321E" d="M227.58 176.256c-.328-.754-.058-1.258.341-2.019.44.199.751.654 1.107 1.4.045.29-.098.44-.168.514-.275.168-.479.262-1.28.105z"/><path fill="#D9A959" d="M186.272 69.969c-.078-.72.292-1.428 1.44-1.866-.19.525-.677 1.136-1.44 1.866zM182.34 71.986c.183-.263.675-.563 1.454-.926-.19.255-.668.571-1.454.926z"/><path fill="#922918" d="M288.317 194.574c-.033-.327.155-.769.531-1.373.022.311-.145.784-.531 1.373z"/><path fill="#D9A959" d="M254.93 51.688c-.416.07-.965-.15-1.731-.574.387-.043.993.121 1.73.574z"/><path fill="#B57345" d="M71.71 120.054c.118.395-.04.949-.369 1.74-.083-.37.004-.976.368-1.74z"/><path fill="#D9A959" d="M256.97 52.689c-.42.078-.979-.134-1.758-.555.393-.051 1.005.107 1.757.555zM138.64 36.038c.081.427-.128.98-.56 1.739-.058-.401.105-1.007.56-1.74z"/><path fill="#7F231F" d="M215.832 212.76c-.485.062-1.25-.023-.208-.731.191.13.217.302.208.731z"/><path fill="#D9A959" d="M227.321 78.998c-.315-.032-.336-.22-.407-.689.135-.552.34-.808.748-1.215.106.473.03 1.11-.34 1.904z"/><path fill="#D4772E" d="M296.86 91.674c-.306-.18-.542-.662-.803-1.413.698-.085.884.45.804 1.413z"/><path fill="#DFB852" d="M211.925 14.658c-.436.103-.983-.089-1.724-.506.408-.08 1.01.066 1.724.506z"/><path fill="#E0A13F" d="M201.509 63.864c-.39-.192-.226-.482.185-.847.247-.075.323.017.359.066.027.26.018.472-.544.781z"/><path fill="#B57345" d="M221.142 143.21c.27-.058.468.188.737.674-.186.009-.48-.194-.737-.673z"/><path fill="#D9A959" d="M253 57.277c.194-.054.46.16.86.593-.174.038-.482-.144-.86-.593z"/><path fill="#D99A40" d="M287.036 77.692c-.14-.002-.336-.274-.64-.778.123.015.354.26.64.778z"/><path fill="#8B2A1D" d="M209.2 223.293c.193-.007.227.204.066.52-.068.09-.1-.318-.066-.52z"/><path fill="#D9A959" d="M184.999 42.717c-.218.17-.492.016-.904-.356.16-.082.49.003.904.356z"/><path fill="#CF7532" d="M88.708 97.175c.055.235-.163.42-.599.673-.135-.251.046-.514.6-.673z"/><path fill="#B57345" d="M304.84 106.775c-.265.057-.466-.185-.72-.678.19-.01.468.2.72.678z"/><path fill="#D9A959" d="M186.007 43.733c-.186.048-.453-.17-.863-.603.164-.031.474.152.863.603zM253.997 58.266c.18-.046.433.174.844.592-.153.024-.461-.15-.844-.592zM262.16 67.24c.253-.062.442.16.717.591-.176.016-.465-.157-.717-.59zM263.054 68.264c.108-.25.286-.251.73-.238.467.15.668.284.59.65-.28.232-.334.283-.361.308-.315-.14-.602-.306-.959-.72zM261.007 65.258c.173-.032.43.2.838.644-.151.015-.452-.183-.838-.644z"/><path fill="#821F19" d="M281.269 202.86c-.084-.187.093-.405.489-.706.15.207 0 .46-.49.705z"/><path fill="#C47F47" d="M126.744 122.964c.038.163-.178.436-.599.871-.021-.145.162-.452.6-.87z"/><path fill="#A95737" d="M219.7 160.802c-.216.052-.394-.157-.629-.58.242-.13.483.048.63.58z"/><path fill="#E0A13F" d="M199.765 65.555c.12.45-.071.449-.548.437-.112-.303.063-.596.548-.437z"/><path fill="#8B2A1D" d="M203.778 190.757c-.202.089-.383-.07-.647-.4.23-.238.48-.13.647.4z"/><path fill="#E0A13F" d="M200.013 64.998c.12-.316.29-.596.702-.957.24-.08.286-.038.31-.016.175.434.07.777-.558 1.067-.301.006-.404-.06-.454-.094z"/><path fill="#D9A959" d="M179.258 72.84c-.018-.224.21-.272.567-.142.11.057-.339.196-.567.142z"/><path fill="#DFB852" d="M221.815 24.824c-.257.059-.453-.18-.704-.663.178-.008.45.196.704.663z"/><path fill="#DF822B" d="M215.842 92.79c.542 3.88-2.927 5.217-4.49 8.045-2.126 3.134-5.015 3.537-8.124 3.462-16.765-.403-33.611 1.426-50.724-1.9-3.48-2.65-6.58-5.195-6.713-9.996 18.093-.392 35.988-.393 53.883-.404 3.649-.002 7.29.138 10.897-.794 1.777-.46 3.667-.351 5.271 1.588z"/><path fill="#E49532" d="M147.58 64.936c1.835 4.966 5.451 8.428 8.414 12.687-2.443 2.444-5.192 3.084-8.448 2.448-3.257-.636-6.464.57-10.123.924-1.978.672-2.616-.335-3.303-1.756-.419-.733-.704-1.209-1.047-1.96-.064-2.698-.07-5.12-.07-7.914 4.226-6.533 6.681-6.382 14.577-4.429z"/><path fill="#CE7B37" d="M145.705 91.839c1.695 3.075 4.647 5.045 5.29 8.782.535.89.812 1.51.653 2.576-.827 1.304-1.728 1.28-2.88.81-.008.816-.052 1.57-.783 2.473-.704.421-1.169.533-2.038.547-4.59-2.191-8.43-4.596-7.12-10.68-1.282-3.597-3.27-6.742-1.82-10.945 3.467 1.001 5.23 4.53 8.698 6.437z"/><path fill="#C05723" d="M143.378 155.11c-7.634-.045-14.878.09-22.122.066-11.43-.039-22.864-.085-34.291-.332-4.818-.105-9.086-1.693-11.748-6.606-1.118-4.222 1.866-4.016 4.243-4.2 21.735-1.673 43.499-1.103 65.26-.775 1.156.018 2.315-.148 3.846-.25 1.955 5.454-.495 9.223-5.188 12.098z"/><path fill="#D16C28" d="M73.368 132.999c-1.602-2.284-1.322-4.764-1.33-7.63 2.25-2.614 3.067-5.835 7.881-5.572 2.903.16 6.147-2.228 9.75.122.506-.134.658-.348.984-.209.218.772.261 1.192.334 1.925.01 2.373.696 4.19 1.996 5.76 3.053 3.684.747 4.496-2.52 4.564-5.571.115-11.163-.222-17.095 1.04z"/><path fill="#A95737" d="M142.813 155.305c3.282-3.471 4.832-7.422 5.998-11.97.251-1.716.06-3.19 1.646-4.375.542-.067.792.049 1.325.466 1.64 2.49.413 4.485-.283 6.453-2.913 8.236-6.077 16.386-8.277 24.857-.332 1.282-.505 2.615-2.084 3.656-1.366.343-2.173.026-3.113-1.05-1.207-2.89-1.75-5.353.609-7.98.516-3.891 2.555-6.707 4.179-10.057zM148.816 130.247c.226-.254.248-.702.243-.927.13-.382.263-.54.655-.524.67.166 1.083.159 1.806.145 1.543.604 1.886 1.7 1.856 3.403-.36 1.337-.966 1.97-2.156 2.61-.87-.437-1.318-1.014-1.962-1.78-.196-.63-.198-1.068-.209-1.836-.16-.498-.31-.668-.233-1.091z"/><path fill="#B57345" d="M150.826 135.467c.192-.934.412-1.495.833-2.278 1.77.774 1.925 2.193 1.162 4.203-.498.562-.752.734-1.453.803-.47-.854-.492-1.604-.542-2.728z"/><path fill="#C05723" d="M72.226 139.86c-.041-.137.149-.398.577-.777.03.13-.165.387-.577.777z"/><path fill="#A95737" d="M150.885 138.265c.035-.173.48-.166.703-.161.5.37.453.703-.177 1-.301-.007-.479-.167-.57-.247-.091-.08.009-.419.044-.592z"/><path fill="#C45B24" d="M309.548 141.915c.361 1.159.378 2.227.371 3.696-10.73 3.987-21.747 2.016-32.64 2.177-8.737.13-17.5.491-26.206-.029-7.152-.428-14.158-.297-21.215.832-1.27.203-2.75-.925-4.485-1.528-.614-.875-.879-1.66-1.278-2.724-.355-3.572.816-5.014 4.47-4.907 10.874.316 21.77.61 32.633.228 6.622-.233 13.204.37 19.844.065 7.074-.326 14.204-.01 21.303-.651 2.676-.242 4.571 1.825 7.203 2.841z"/><path fill="#B64C20" d="M304.59 157.011c.428 1.379.414 2.753.382 4.538-3.58 4.81-8.757 4.166-13.456 4.37-12.681.552-25.4 1.292-38.059.8-5.466-.212-11.177.903-16.577-1.189-2.696-1.044-5.038-2.464-6.78-5.22 1.775-3.872 5.172-3.648 8.249-3.232 13.61 1.84 27.27.594 40.902.882 8.307.175 16.638.365 25.34-.949z"/><path fill="#D16C28" d="M219.08 121.33c-.132-.77-.11-1.216-.076-1.998 4.404-4.193 9.305-2.565 14.587-1.512.957.333 1.468.532 2.181.917.413 5.74 6.478 6.934 8.715 11.188-7.352 1.776-14.5 1.516-22.114 1.086-5.069-2.053-1.866-6.346-3.293-9.681z"/><path fill="#C45B24" d="M222.853 137.893c-.135.014-.37-.212-.706-.676.137-.016.373.208.706.676z"/><path fill="#A93E1C" d="M299.598 173.001c.104.75-.17 1.54-.498 2.634-2.9 1.497-4.138 3.93-5.049 7.018-.568.596-1.06.849-1.803 1.222-3.871 1.964-7.721 2.508-11.763 2.475-10.902-.088-21.806.05-32.708-.077-2.664-.03-5.35-.048-7.435-2.937-2.145-2.073-2.525-4.476-3.33-7.006.65-1.376 1.517-1.906 2.867-1.82 17.735 1.124 35.487.161 53.228.423 2.33.035 3.923-1.78 6.491-1.932z"/><path fill="#AE4620" d="M138.561 165.018c.423 2.353.438 4.712.448 7.514-1.657 4.916-5.024 7.01-9.612 6.582-7.591-.707-15.028 1.137-22.98.93-.935-.274-1.458-.48-2.196-.873-.623-2.676-2.528-3.496-4.54-4.52-4.385-2.23-8.718-4.64-11.632-9.265 14.832 1.2 29.821-1.853 44.744.343 1.715.253 3.57-.447 5.768-.711z"/><path d="M151.076 139.497c.36-.464.604-.64.75-1.16.047-1.66.109-3.091.102-4.947-.032-1.501.004-2.578-.03-4.055.884-5.925.051-11.275-1.848-16.875-1.268-1.56-2.646-2.593-2.747-4.78.022-.58.08-.81.32-1.34-.425-2.047-1.034-3.792-1.682-5.894-.127-.686-.214-1.014.199-1.242 1.73 1.6 2.962 3.098 4.848 4.81 2.593 1.098 3.112 3.065 4.248 5.013.37.765.574 1.208.946 1.984.252.569.342.803.572 1.39 2.66 5.537 4.414 10.888 3.674 17.16-1.507 9.353-6.272 17.192-8.742 26.206.169 1.995-.505 3.474-.81 5.403-3.715 4.36-2.365 9.654-3.875 14.584-1.008 3.694-.065 6.815 1.083 10.275.376 1.039.542 1.748.612 2.836-.003.587-.018.82-.025 1.397 1.14 3.314 2.625 6.15 3.41 9.613.134.79.158 1.245.115 2.035-.027.778-.01 1.222.012 2.002-.126.774-.316 1.174-.807 1.79a22.658 22.658 0 0 0-.982 2.252c-.307-.55-.614-1.101-1.157-1.814-.235-.161-.252-.14-.242-.148-.467-.426-.509-1.026-.82-1.823a429.44 429.44 0 0 1-4.362-11.682c-1.69-.928-2.555-2.145-3.18-4.065-.349-.854-.452-1.365-.506-2.291-.596-3.048-.975-5.725-1.184-8.843.21-1.286.656-1.995 1.568-2.916 1.07-8.074 3.92-15.204 6.94-22.283a51.47 51.47 0 0 0 3.6-12.592z"/><path fill="#8D2116" d="M128.08 210.37c6.621.68 13.036 4.285 20.503 1.711.302 5.949-1.21 11.343-6.284 15.227-.592.453-1.015 1.3-1.226 2.048-.986 3.494-2.663 1.932-3.578.256-3.366-6.162-7.527-11.948-9.414-19.243z"/><path d="M171.013 201.524c-.333.569-.557.803-.695 1.375.046.471.1.695.186 1.265.156 1.786-.483 3.025-1.228 4.563-.22.267-.288.239-.303.273-.442.457-.458 1.048-.828 1.78-.19.21-.142.22-.157.2-.374.416-.483.94-.665 1.724a6.441 6.441 0 0 0-.319.97c-2.044 1.978-1.969 5.127-4.707 6.915.896-5.418 4.565-9.55 4.665-15.157-.465-4.69 1.263-8.717 1.538-13.328 1.605-6.172.453-12.456 3.938-18.52 3.556-4.482 4.944-9.4 8.493-12.988 3.816-3.858 6.014-3.647 7.838 1.399.604 1.67 2.483 2.813 1.948 5.34-2.985-1.307-6.364-2.678-8.993-.305-2.382 2.15-4.343 4.907-5.662 7.993-3.56 8.335-3.687 17.321-5.05 26.5z"/><path fill="#922918" d="M151.539 206.083c-.4-.547-.451-.973-.705-2.128-.05-.984.1-1.24.573-1.805 4.707-1.804 9.044-2.295 13.485.678.32.68.392.975.3 1.696-.701 4.256-3.147 7.295-4.511 10.788-.601 1.54-1.974 2.809-3.915 2.217-1.755-.535-2.401-2.03-2.711-3.775-.46-2.584 1.105-5.774-2.516-7.67z"/><path fill="#923A26" d="M165.349 204.958c-.322-.008-.322-.497-.324-.741-2.083-4.778.29-8.359 2.852-12.175.61-.254.872-.306 1.504-.201.927 4.569-.78 8.578-2.14 12.947-.716.224-1.144.201-1.892.17z"/><path d="M147.559 228.59c.207-.706.01-1.841 1.11-1.55.121.032-.037 1.121-.283 1.906-.357.068-.495-.05-.827-.357z"/><path fill="#922918" d="M277.943 202.735c.06.656.056 1.111.045 1.907-3.493 1.531-5.544 4.609-7.885 7.028-3.191 3.297-7.552 5.865-11.06 5.99-4.555.162-9.756 1.116-14.331-1.307-2.048-1.084-2.735-2.74-2.707-4.916.036-2.833-.003-5.666-.004-8.959 10.556 2.43 21.227 1.805 31.954.917 1.438-.12 2.434-1.603 3.988-.66z"/><path fill="#A3371A" d="M240.01 183.384c15.98 1.332 31.974 1.002 47.97-.146 1.169-.084 2.3-.245 3.702.543-2.894 7.62-5.815 8.442-13.42 8.584-9.572.179-19.115-2.022-28.695-.108-4.616.923-8.579-2.801-9.557-8.873z"/><path fill="#E9A433" d="M200.14 65.325c.27-.416.485-.635.788-1.08.398-.343.645-.529 1.011-.935 2.836-.54 4.379-2.723 6.734-4.22 6.385-3.286 12.644-3.113 19.35-.858 1.843 4.008.478 7.491-.751 11.375-7.906 2.183-15.647 1.035-23.34 1.174-2.716.049-2.647-2.51-3.66-4.484-.197-.29-.156-.745-.131-.972z"/><path fill="#E0A13F" d="M227.258 69.983c.074-3.378.407-6.75.738-10.551-.817-1.8-.302-2.535 1.525-2.637.337 4.43 1.11 8.761-1.271 12.976-.389.22-.561.219-.992.212z"/><path fill="#A43D1D" d="M203.075 181.37c1.385-4.139 4.806-3.692 7.573-3.235 5.474.904 10.536-.302 15.985-1.98.348-.149.368-.15.368-.142 1.009.92 1.256 2.219 1.86 3.697 0 2.227.962 3.615 2.052 5.162 2.125 3.015.735 5.47-2.949 5.641-7.222.336-14.31.409-20.62-4.251-1.793-1.325-3.375-2.483-4.269-4.893z"/><path fill="#922918" d="M222.448 217.025c-.506-2.866-.307-5.629-1.363-8.643 3.298-4.247 7.684-3.966 12.532-3.376.706 4.545-.086 8.954-1.278 13.285-.508 1.849-.782 4.177-3.325 4.439-2.334.24-3.557-1.277-4.432-3.281-.375-.86-1.207-1.52-2.134-2.424z"/><path fill="#AC4420" d="M229.088 179.736c-1.352-.476-1.996-1.583-2.067-3.378.38-.307.78-.276 1.474-.189.67 1.11 1.105 2.154.593 3.567z"/><path fill="#D9782A" d="M138.661 96.066c1.444 3.865 4.124 6.667 7.176 9.619.98 1.146 1.578 2.172 2.512 3.363.31 1.022.472 1.715-.11 2.68-1.776 3.194-7.302 4.421-12.334 2.887-1.096-.334-2.107-.946-3.53-1.518.937-4.844 1.606-9.604-.33-14.732 2.067-.98 4.16-1.605 6.616-2.3z"/><path fill="#B57345" d="M148.316 112.015c-.31-.763-.316-1.514-.333-2.64-.38-.81-.507-1.307-.176-2.202 1.604.864 1.364 2.75 2.086 4.58-.458.34-.864.307-1.577.262z"/><path fill="#C56026" d="M149.86 128.88c.112.089-.347.153-.577.185-.07-.264.162-.365.578-.184zM148.938 130.105c.106.057.109.227.107.65-.278.033-.346-.232-.107-.65z"/><path fill="#EBAC34" d="M229.919 56.572c-.593.897-1.17 1.38-1.836 2.146-6.216.421-12.344.558-18.783.481-1.148-4.69 2.276-7.71 3.61-11.817 4.954-3.764 11.093-3.518 15.792.452.6 2.895.916 5.61 1.217 8.738z"/><path fill="#A43D1D" d="M141.488 185.74c.286.699.36 1.138.495 1.908-.537 2.45-2.171 3.227-4.106 3.038-7.352-.72-14.894.249-22.46-2.543-3.971-1.841-6.398-4.855-9.24-7.877 5.355-4.046 11.918-3.937 17.918-3.597 5.456.31 9.99-.217 14.563-3.61.778.224 1.21.532 1.9.917.316.857.374 1.638.344 2.803-.175 3.17-1.383 6.018.586 8.96z"/><path fill="#9D341C" d="M115.095 188.338c2.342-1.933 4.954-1.133 7.578-.961 6.216.406 12.445.61 19.02.748 1.815.572.945 2.403 2.03 3.657-2.325 7.417-8.523 7.332-14.31 8.076-2.788.359-4.869-1.146-6.613-2.807-2.727-2.596-5.085-5.58-7.705-8.713z"/><path fill="#7F231F" d="M148.08 204.218c.265.195.576.68.918 1.465-.27-.191-.57-.683-.917-1.465z"/><path fill="#E9A433" d="M160.405 61.067c-.311-.553-.315-.987-.292-1.745 4.279-7.688 11.51-6.663 18.277-6.668 5.253-.004 9.155 2.104 10.386 8.08.244 1.939.346 3.65-1.421 5.094-5.34 1.783-10.75 1.2-15.846 2.988-2.697.946-5.072-1.091-6.697-3.371-1.165-1.636-2.298-3.256-4.407-4.378z"/><path fill="#D16C28" d="M303.61 112.99c3.621 1.196 1.633 4.454 3.186 6.699.686 4.274-1.324 5.007-4.97 5.471-6.942.883-13.763-.161-20.633-.177-5.14-.01-5.366-.5-3.263-5.426.505-1.184.717-2.495 1.074-4.13 8.146-.1 16.128-1.633 24.606-2.437zM278.307 114.93c-.01-.232.216-.268.552-.04.09.093-.339.065-.552.04z"/><path fill="#C56026" d="M90.834 119.882c-.006.181-.409.146-.61.131-.02-.363-.088-1.394.61-.131z"/><path fill="#C05723" d="M209.695 142.698c1.303 3.39 3.65 5.999 3.366 9.872-3.752 4.43-8.634 3.648-13.288 3.238-3.5-.309-6.857-.038-10.532 1.077-3.486-.663-6.66-1.724-9.946.91-9.043.74-17.879 2.018-26.598-2.144-.943-5.834 2.413-9.984 5.019-14.712 8.447-2.216 16.644-1.51 24.704-1.003 6.8.427 13.585.586 20.382.784 2.28.066 4.719-.276 6.893 1.978z"/><path fill="#AC4420" d="M216.061 159.253c.473-.033 1.01.18 1.753.598-.66.82-1.305.675-1.753-.598zM145.477 176.417c-.394-5.53.813-10.382 3.153-15.266 1.594-.002 2.412.888 2.874 1.953.898 2.069 2.298 2.333 4.419 2.108 4.251-.449 8.571.48 12.833-.819 1.743-.53 3.7-.16 4.401 2.326-.15 2.03-.152 3.747-.138 5.893.017.43-.008.397.009.406-2.89 2.238-1.078 6.131-3.358 8.945-7.283 4.08-14.347 2.304-21.292.335-2.351-.667-2.085-3.497-2.9-5.881z"/><path fill="#B64C20" d="M173.25 166.799c-1.515-.905-3.026-.886-4.393-.223-5.094 2.473-10.586.337-15.922 1.524-4.052.9-3.146-3.915-3.937-6.837.182-1.739-.227-3.304 1.032-4.866.706-1.076 1.285-1.766 2.638-1.56 8.708 1.858 17.473-.06 26.067 2.945-.795 3.593-3.437 5.917-5.486 9.017z"/><path fill="#923A26" d="M179.119 197.824c-2.057.8-3.74 1.467-5.769 2.149.303-3.371.952-6.758 1.634-10.544 2.226-2.992 2.777-6.416 4.501-9.236 2.01-3.287 3.625-3.491 6.385-.58-1.769 6.417-3.442 12.475-6.751 18.21z"/><path fill="#A43D1D" d="M185.291 180.053c-1.827-2.775-2.293-.709-3.34.304-2.598 2.51-2.54 6.908-6.581 8.626.796-6.056 2.064-12.123 5.339-17.834 2.895 1.908 7.338 2.403 6.519 7.52-.233.443-.24.637-.254 1.125-.437.62-.91.702-1.683.26z"/><path fill="#AE4620" d="M187.332 178.938c-.634-2.318-2.602-3.09-4.206-4.138-1.22-.797-2.79-1.237-2.17-3.523 4.152-4.692 5.806-4.078 9 3.352.187 1.58.64 2.849-.656 4.164-.756.195-1.197.181-1.968.145z"/><path fill="#A43D1D" d="M189.055 179.354c.134-1.504.337-2.658.756-4.093 2.923.985 3.054 3.752 4.067 6.413.204 1.71 1.274 3.065.278 4.818-3.067-1.398-4.27-3.92-5.1-7.138z"/><path d="M195.106 176.889c-1.312-.993-2.177-2.26-1.911-4.846.951 1.727 1.519 2.757 2.26 4.033.061.376-.051.506-.35.813z"/><path fill="#923A26" d="M172.8 200.216c-.005.316-.2.841-.589 1.572.003-.318.2-.84.588-1.572z"/><path d="M184.723 179.974c.742-.138 1.173-.077 1.924.048 2.63 4.499 4.94 8.934 7.436 13.676.28.494.372.68.694 1.076.23.21.222.224.229.22 3.372 6.077 3.384 6.196-3.76 6.906-3.266.325-6.608-.136-9.88.155-3.067.272-2.505-1.63-2.557-3.731-.052-6.892 2.296-12.675 5.914-18.35z"/><path fill="#923A26" d="M169.345 208.897c-.53-1.465.27-2.771 1.168-4.514 1.11 1.538.97 3.209-1.168 4.514z"/><path fill="#7F231F" d="M168.157 210.79c-.016-.335.168-.87.577-1.58.024.343-.175.862-.577 1.58zM167.37 212.73c-.061-.331.038-.88.37-1.6.086.348-.062.865-.37 1.6z"/><path fill="#91432E" d="M170.854 203.857c.072.166-.242.16-.398.164-.157.004-.236-.437-.191-.656.232-.064.39.118.589.492z"/><path fill="#D99A40" d="M264.41 68.936c-.315-.028-.34-.462-.35-.678.507-.01 1.023.198 1.732.614-.227.171-.647.132-1.382.064z"/><path fill="#E8AE3C" d="M135.265 53.398c-.964-5.155 1.57-9.2 2.762-13.93 2.55-.317 3.773-2.204 5.25-3.751.75-.788 1.296-2.24 2.676-1.775 1.391.47 1.025 1.943 1.025 3.037-.002 5.755.721 11.555-.95 17.611-3.98 4.084-7.171.972-10.763-1.192z"/><path fill="#E9A433" d="M134.888 53.303c3.79-.996 6.803 1.672 10.73 1.678.907.57 1.411 1.138 2.1 1.927-.285 2.609-1.292 4.983.138 7.76-.958 1.194-2.298 1.556-3.578 1.287-4.07-.857-7.16 1.477-10.892 3.011-.542-5.193-.715-10.415 1.502-15.663z"/><path fill="#D37229" d="M233.88 117.623c-4.423 2.291-9.244 1.004-14.403 1.375-.137-3.048.188-6.094.524-9.566 1.557-1.836 1.9-3.84 2.591-5.67.55-1.455 1.197-2.788 3.104-2.505 1.582.235 2.633 1.064 3.19 2.665 1.554 4.476 3.216 8.916 4.993 13.701z"/><path fill="#D16C28" d="M209.628 113.663c.363 4.343.369 8.359.366 12.834-1.395 4.882-4.705 5.86-8.915 5.835-9.129-.053-18.264.163-27.386-.082-4.326-.116-8.48 1.334-13.196.599-.604-.51-.798-.766-1.093-1.495.674-5.634-.527-10.718-.526-16.294 1.557-2.449 3.455-2.934 5.82-2.81 13.46.702 26.928.64 40.39.023 1.564-.072 2.978-.05 4.54 1.39z"/><path fill="#D9782A" d="M209.998 113.564c-15.829 2.093-31.658 1.814-47.495.765-.626-.042-1.276.278-2.27.58-1.418.571-2.206.084-3.103-.935-1.623-3.605-2.427-7.294-5.984-9.7-.24-.243-.187-.256-.196-.23.011-.747.031-1.52.062-2.679 17.263.953 34.548.603 51.826.644 2.505.006 4.99-.038 7.818-.903.777 4.026-.36 7.991-.658 12.458z"/><path fill="#C96125" d="M159.783 132.236c13.827-4.343 27.704-1.408 41.402-2.15 3.135-.17 5.882-.575 8.463-2.998.351.043.363.215.39.648.006 4.956 0 9.654-.005 14.82-13.721 1.131-27.381-.74-41.092-.547-3.454.048-6.907.206-10.67.14-2.279-3.745.922-6.489 1.512-9.913z"/><path fill="#8B2A1D" d="M194.92 194.797c-.216.105-.446-.074-.625-.57.202-.057.39.145.625.57z"/><path fill="#DC8B35" d="M133.993 78.99c-.006-.009.15-.22.15-.22s-.005.168-.065.205c-.06.038-.078.024-.085.015z"/><path fill="#CB702F" d="M147.994 106.63c.023.688.013 1.169-.01 2.01-1.217.04-1.842-.756-1.966-2.317.377-.325.78-.317 1.486-.298.302.012.457.4.49.606z"/><path d="M146.089 99.895c-.915-.071-1.294-.648-.901-1.29.37-.605.745.008 1.255.496.075.336-.045.469-.354.794z"/><path fill="#A43D1D" d="M145.19 176.47c6.628 7.848 15.42 5.507 24.324 4.554 1.729 3.128-.321 5.957-.66 9.376-5.276 4.554-16.437 4.508-21.489-.03-.3-.346-.39-.35-.388-.394-.306-.385-.477-.783-.624-1.555-1.71-3.924-1.311-7.733-1.163-11.95z"/><path fill="#9A311B" d="M147.069 190.41c6.76.51 13.507 2.247 20.63-.235 1.332-.346 1.702.23 1.538 1.48-1.452 4.106-2.688 7.877-4.07 11.983-4.384-1.427-8.84-.32-13.644-.657-1.11-.28-.987-.894-1.17-1.68-1.157-3.677-2.219-7.09-3.284-10.89z"/><path fill="#A95737" d="M160.06 131.764c.064 3.513-1.117 6.496-2.076 9.872-1.677 4.426-3.333 8.512-5.002 12.979-.745.69-1.477 1-2.499 1.382.534-6.437 4.262-11.937 6.035-18.112.71-2.474 1.186-5.014 2.086-7.755.696-.146.941.081 1.233.658.185.378.194.55.222.976z"/><path fill="#CE7B37" d="M150.959 104.38c2.902-.825 5.468-.81 5.25 3.348-.099 1.877 2.273 2.806 1.876 5.047-1.173 1.157-1.957.646-2.936-.455-.245-.284-.178-.306-.192-.274-.352-.447-.453-1.003-.661-1.82-1.411-1.862-2.733-3.447-3.337-5.847z"/><path fill="#B57345" d="M154.94 112.41c.765-.086 1.566.202 2.678.55.807.63 1.303 1.201 2.03 1.936.278 5.164.326 10.166.37 15.633-.262.238-.52.009-.937-.424.619-6.392-1.29-11.96-4.141-17.695z"/><path fill="#9D341C" d="M141.747 185.6c-5.232-1.618-.55-5.142-1.12-8.136.474 2.383-.01 5.162 1.12 8.136z"/><path fill="#9A311B" d="M146.2 188.378c.268.169.493.611.747 1.303-.244-.177-.518-.603-.748-1.303z"/><path fill="#7F231F" d="M150.184 201.367c.306.143.537.616.825 1.348.057.26.011.294-.01.312-.152.15-.285.28-.613.212-.222-.646-.249-1.094-.202-1.872z"/><path fill="#B57345" d="M154.1 110.284c.311.199.551.711.817 1.509-.692.046-.9-.507-.816-1.51z"/><path fill="#9A311B" d="M150.21 203.276c-.02-.234.375-.241.572-.235.197.005.202.503.199.752-.33.18-.58.003-.772-.517z"/><path fill="#91432E" d="M169.204 191.991c-.394-.534-.605-1.067-1.01-1.818-.597-3.193 1.464-5.594 1.726-8.8.782-3.013-2.091-6.783 2.793-8.288-.71 5.993-1.751 12.044-2.878 18.505-.085.409-.45.403-.631.401z"/></svg>